. 
 
http://www.torrenting.com          :     Once & For all ;)


               www . Torrenting . Com 

(((((((((((((= Enjoy No RAR releases =))))))))))))))))))))


...................................NFO:....................................

.oooo    oooo  o8o  ooooo      ooo   .oooooo.     .oooooo..o oooooooooooo oooooooooooo oooooooooo.   
`888   .8P'   `"'  `888b.     `8'  d8P'  `Y8b   d8P'    `Y8 `888'     `8 `888'     `8 `888'   `Y8b  
 888  d8'    oooo   8 `88b.    8  888           Y88bo.       888          888          888      888 
 88888[      `888   8   `88b.  8  888            `"Y8888o.   888oooo8     888oooo8     888      888 
 888`88b.     888   8     `88b.8  888     ooooo      `"Y88b  888    "     888    "     888      888 
 888  `88b.   888   8       `888  `88.    .88'  oo     .d8P  888       o  888       o  888     d88' 
o888o  o888o o888o o8o        `8   `Y8bood8P'   8""88888P'  o888ooooood8 o888ooooood8 o888bood8P'   
----------------------------------------------------------------------------------------------------
                             Chronicle (2012) TS READNFO XviD-KiNGSEED                              
----------------------------------------------------------------------------------------------------
Format                           : AVI
Format/Info                      : Audio Video Interleave
File size                        : 772 MiB
Duration                         : 1h 15mn
Overall bit rate                 : 1 431 Kbps

Video
ID                               : 0
Format                           : MPEG-4 Visual
Format profile                   : Advanced Simple@L5
Format settings, BVOP            : 2
Format settings, QPel            : No
Format settings, GMC             : No warppoints
Format settings, Matrix          : Default (H.263)
Muxing mode                      : Packed bitstream
Codec ID                         : XVID
Codec ID/Hint                    : XviD
Duration                         : 1h 15mn
Bit rate                         : 1 293 Kbps
Width                            : 680 pixels
Height                           : 288 pixels
Display aspect ratio             : 2.35:1
Frame rate                       : 25.000 fps
Color space                      : YUV
Chroma subsampling               : 4:2:0
Bit depth                        : 8 bits
Scan type                        : Progressive
Compression mode                 : Lossy
Bits/(Pixel*Frame)               : 0.264
Stream size                      : 697 MiB (90%)
Writing library                  : XviD 64

Audio
ID                               : 1
Format                           : MPEG Audio
Format version                   : Version 1
Format profile                   : Layer 3
Mode                             : Joint stereo
Mode extension                   : MS Stereo
Codec ID                         : 55
Codec ID/Hint                    : MP3
Duration                         : 1h 15mn
Bit rate mode                    : Constant
Bit rate                         : 128 Kbps
Channel(s)                       : 2 channels
Sampling rate                    : 44.1 KHz
Compression mode                 : Lossy
Stream size                      : 69.0 MiB (9%)
Language                         : English
-----------------------------------------------------------------------------------------------------
Title: Chronicle (I) (2012)

IMDB:  http://www.imdb.com/title/tt1706593/

Plot:  Three high school friends gain superpowers after making an incredible
discovery. Soon, though, they find their lives spinning out of control and their 
bond tested as they embrace their darker sides.
-----------------------------------------------------------------------------------------------------
Source(s): MiSTERE + INSPiRAL (Thanks!)

Notes: 
Big thanks goes to MiSTERE for bringing us the LiNE audio and to INSPiRAL for the sweet job in 
filtering it. We ran a whole bunch of filters over the video. We adjusted/tweaked the HSV, RGB, White 
Balance and Contrast/Brightness. As well as that we ran a slight denoise filter as well as a slight 
sharpen. Anyway, after filters galore this came out looking pretty nice. Only thing left to do after 
that was to mux INSPiRAL's filtered audio to the video. Came out looking pretty nice. Sample is 
included so you can check that for quality. Not the best video for a TS but it's more than watchable. 
Enjoy.

READNFO: This is our first proper release. :)
------------------------------------------------------------------------------------------------------
Greets: To All Of The Hard-Working p2p & Scene groups + All The Source Providers.

If you have something you can offer, please contact us at: kingseed@hush.com
------------------------------------------------------------------------------------------------------